<mxfile host="app.diagrams.net" modified="2022-09-24T17:02:01.705Z" agent="5.0 (Macintosh; Intel Mac OS X 10_15_7) AppleWebKit/537.36 (KHTML, like Gecko) Chrome/105.0.0.0 Safari/537.36" etag="-mvFJILLEhi7nOlZSmDb" version="20.3.2" type="github">
  <diagram id="B_SzXJe0JUNsXyjz7goi" name="Page-1">
    <mxGraphModel dx="827" dy="438" grid="1" gridSize="10" guides="1" tooltips="1" connect="1" arrows="1" fold="1" page="1" pageScale="1" pageWidth="827" pageHeight="1169" math="0" shadow="0">
      <root>
        <mxCell id="0" />
        <mxCell id="1" parent="0" />
        <mxCell id="b_rr0pJjc8lgBxMN6gYH-1" value="Before Sunrise" style="rounded=0;whiteSpace=wrap;html=1;" parent="1" vertex="1">
          <mxGeometry x="220" y="100" width="110" height="30" as="geometry" />
        </mxCell>
        <mxCell id="b_rr0pJjc8lgBxMN6gYH-2" value="Before Sunset" style="rounded=0;whiteSpace=wrap;html=1;" parent="1" vertex="1">
          <mxGeometry x="220" y="150" width="110" height="30" as="geometry" />
        </mxCell>
        <mxCell id="b_rr0pJjc8lgBxMN6gYH-3" value="Before Midnight" style="rounded=0;whiteSpace=wrap;html=1;" parent="1" vertex="1">
          <mxGeometry x="220" y="200" width="110" height="30" as="geometry" />
        </mxCell>
        <mxCell id="b_rr0pJjc8lgBxMN6gYH-4" value="A Trilogy of films" style="text;html=1;strokeColor=none;fillColor=none;align=center;verticalAlign=middle;whiteSpace=wrap;rounded=0;" parent="1" vertex="1">
          <mxGeometry x="60" y="140" width="150" height="30" as="geometry" />
        </mxCell>
        <mxCell id="b_rr0pJjc8lgBxMN6gYH-5" value="Ryan Gosling" style="text;html=1;strokeColor=none;fillColor=none;align=center;verticalAlign=middle;whiteSpace=wrap;rounded=0;" parent="1" vertex="1">
          <mxGeometry x="160" y="400" width="150" height="30" as="geometry" />
        </mxCell>
        <mxCell id="b_rr0pJjc8lgBxMN6gYH-6" value="La La Land" style="text;html=1;strokeColor=none;fillColor=none;align=center;verticalAlign=middle;whiteSpace=wrap;rounded=0;" parent="1" vertex="1">
          <mxGeometry x="380" y="400" width="150" height="30" as="geometry" />
        </mxCell>
        <mxCell id="b_rr0pJjc8lgBxMN6gYH-7" value="Celine dion" style="text;html=1;strokeColor=none;fillColor=none;align=center;verticalAlign=middle;whiteSpace=wrap;rounded=0;" parent="1" vertex="1">
          <mxGeometry x="160" y="440" width="150" height="30" as="geometry" />
        </mxCell>
        <mxCell id="b_rr0pJjc8lgBxMN6gYH-9" value="&lt;h1 style=&quot;color: rgb(0, 0, 0); margin: 0px 0px 0.25em; padding: 0px; overflow: visible; border-bottom: 1px solid rgb(162, 169, 177); font-weight: normal; font-family: &amp;quot;Linux Libertine&amp;quot;, Georgia, Times, serif; line-height: 1.3; font-style: normal; font-variant-ligatures: normal; font-variant-caps: normal; letter-spacing: normal; orphans: 2; text-align: start; text-indent: 0px; text-transform: none; widows: 2; word-spacing: 0px; -webkit-text-stroke-width: 0px; text-decoration-thickness: initial; text-decoration-style: initial; text-decoration-color: initial;&quot; class=&quot;firstHeading mw-first-heading&quot; id=&quot;firstHeading&quot;&gt;&lt;span style=&quot;&quot; class=&quot;mw-page-title-main&quot;&gt;&lt;font style=&quot;font-size: 12px;&quot;&gt;Newfoundland and Labrador accent&lt;/font&gt;&lt;/span&gt;&lt;/h1&gt;" style="text;html=1;strokeColor=none;fillColor=none;align=center;verticalAlign=middle;whiteSpace=wrap;rounded=0;" parent="1" vertex="1">
          <mxGeometry x="80" y="340" width="280" height="30" as="geometry" />
        </mxCell>
        <mxCell id="Xf6TF4mR61ZTHXW_nYoZ-1" value="12 Angry Men" style="rounded=0;whiteSpace=wrap;html=1;" vertex="1" parent="1">
          <mxGeometry x="390" y="290" width="110" height="30" as="geometry" />
        </mxCell>
      </root>
    </mxGraphModel>
  </diagram>
</mxfile>
